<?xml version="1.0" standalone="no"?>
<!DOCTYPE svg PUBLIC "-//W3C//DTD SVG 20010904//EN"
 "http://www.w3.org/TR/2001/REC-SVG-20010904/DTD/svg10.dtd">
<svg version="1.0" xmlns="http://www.w3.org/2000/svg"
 width="2084.000000pt" height="2084.000000pt" viewBox="0 0 2084.000000 2084.000000"
 preserveAspectRatio="xMidYMid meet">
<metadata>
Created by potrace 1.14, written by Peter Selinger 2001-2017
</metadata>
<g transform="translate(0.000000,2084.000000) scale(0.100000,-0.100000)"
fill="#000000" stroke="none">
<path d="M1990 13143 c-1 -65 -25 -1488 -54 -3163 -29 -1675 -51 -3048 -49
-3052 2 -5 229 -8 504 -8 391 0 500 3 504 13 2 6 22 885 45 1952 22 1067 44
2007 48 2088 l7 148 384 -2088 c211 -1148 386 -2094 389 -2101 3 -10 98 -12
446 -10 l441 3 361 2070 c199 1139 364 2079 366 2090 3 11 6 -14 7 -55 0 -41
26 -959 56 -2040 30 -1081 55 -1989 55 -2017 l0 -53 501 0 502 0 -7 283 c-4
155 -27 1468 -51 2917 -24 1449 -47 2749 -51 2888 l-6 252 -723 0 -723 0 -11
-47 c-5 -27 -173 -850 -373 -1831 -213 -1045 -366 -1775 -370 -1765 -6 16
-688 3618 -688 3636 0 4 -340 7 -755 7 l-755 0 0 -117z"/>
<path d="M6943 13246 c3 -8 273 -842 599 -1853 l593 -1838 5 -1315 5 -1315
673 -3 672 -2 0 1292 0 1292 590 1872 c325 1029 590 1874 590 1878 0 3 -285 6
-633 6 l-633 0 -263 -977 c-246 -912 -279 -1030 -280 -1010 -1 11 -579 1931
-591 1962 l-10 25 -661 0 c-569 0 -660 -2 -656 -14z"/>
<path d="M14155 13248 c-3 -7 -4 -1433 -3 -3168 l3 -3155 703 -3 702 -2 0
1410 0 1410 580 0 580 0 0 490 0 490 -580 0 -580 0 0 795 0 795 670 0 670 0
-2 473 -3 472 -1368 3 c-1089 2 -1369 0 -1372 -10z"/>
<path d="M17520 10090 l0 -3170 700 0 700 0 0 3170 0 3170 -700 0 -700 0 0
-3170z"/>
<path d="M11170 9670 l0 -410 1015 0 1015 0 0 410 0 410 -1015 0 -1015 0 0
-410z"/>
</g>
</svg>
