<svg width="43" height="42" viewBox="0 0 43 42" fill="none" xmlns="http://www.w3.org/2000/svg">
<path d="M38.3829 31.7422H34.9503C34.7159 31.7422 34.4962 31.8447 34.3497 32.0254C34.0079 32.4404 33.6417 32.8408 33.256 33.2217C31.6783 34.8009 29.8095 36.0595 27.753 36.9277C25.6225 37.8276 23.3325 38.2893 21.0196 38.2852C18.6808 38.2852 16.4151 37.8262 14.2862 36.9277C12.2297 36.0595 10.361 34.8009 8.78331 33.2217C7.20282 31.6478 5.94257 29.7823 5.07238 27.7285C4.16905 25.5996 3.71495 23.3389 3.71495 21C3.71495 18.6611 4.17394 16.4004 5.07238 14.2715C5.94152 12.2158 7.19152 10.3652 8.78331 8.77833C10.3751 7.19142 12.2257 5.94142 14.2862 5.07228C16.4151 4.17384 18.6808 3.71486 21.0196 3.71486C23.3585 3.71486 25.6241 4.16896 27.753 5.07228C29.8136 5.94142 31.6642 7.19142 33.256 8.77833C33.6417 9.16408 34.003 9.56447 34.3497 9.97462C34.4962 10.1553 34.7208 10.2578 34.9503 10.2578H38.3829C38.6905 10.2578 38.881 9.91603 38.7101 9.65724C34.965 3.83693 28.4122 -0.0156121 20.9659 0.00391913C9.26671 0.033216 -0.113172 9.53029 0.00401589 21.2149C0.121203 32.7139 9.48644 41.9961 21.0196 41.9961C28.4464 41.9961 34.9698 38.1485 38.7101 32.3428C38.8761 32.084 38.6905 31.7422 38.3829 31.7422ZM42.7237 20.6924L35.795 15.2236C35.5362 15.0186 35.1603 15.2041 35.1603 15.5313V19.2422H19.8282C19.6134 19.2422 19.4376 19.418 19.4376 19.6328V22.3672C19.4376 22.582 19.6134 22.7578 19.8282 22.7578H35.1603V26.4688C35.1603 26.7959 35.5411 26.9815 35.795 26.7764L42.7237 21.3076C42.7704 21.2711 42.8082 21.2244 42.8342 21.1711C42.8601 21.1178 42.8736 21.0593 42.8736 21C42.8736 20.9407 42.8601 20.8822 42.8342 20.8289C42.8082 20.7756 42.7704 20.7289 42.7237 20.6924Z" fill="#F8F8F8"/>
</svg>
