<svg xmlns="http://www.w3.org/2000/svg" viewBox="0 0 500 500"><defs><style>.cls-1{fill:#ff0;}</style></defs><g id="Слой_1" data-name="Слой 1"><circle class="cls-1" cx="250" cy="250" r="250"/></g><g id="Слой_9" data-name="Слой 9"><path d="M45.25,334,47.87,182h36l16.7,88.35,18-88.35H153.3L155.93,334H132.1l-2.81-101.11L111.65,334H90.46L71.7,232.1,69.45,334Z"/><path d="M195.51,334V271.87L166.62,182h31.7l14.45,48,12.94-48H256.1l-28.33,89.85V334Z"/><path d="M268.1,277.88V258.37h48.59v19.51Z"/><path d="M339.76,334V182h65.66v22.69H373.34V243h28v23.45h-28V334Z"/><path d="M420.43,334V182H454V334Z"/></g></svg>